# xmcd
#
# Track frame offsets:
#	150
#	14353
#	32015
#	51412
#	67677
#	89017
#	100542
#	116074
#	134806
#	162331
#
# Disc length: 2428 seconds
#
# Revision: 2
# Processed by: cddbd v1.5.2PL0 Copyright (c) Steve Scherf et al.
# Submitted via: EasyCDDAExtractor 16.0.1.1
#
DISCID=85097a0a
DTITLE=Gail Davies - Eclectic
DYEAR=1995
DGENRE=Country
TTITLE0=Just Can't Satisfy You
TTITLE1=A Friend Like You
TTITLE2=Where Does Love Come From
TTITLE3=In The Worst Way
TTITLE4=Drifting
TTITLE5=Your Mamma Works So Hard
TTITLE6=Wedding Invitation
TTITLE7=Heat It Up
TTITLE8=Lean On You
TTITLE9=Reaching Out For Him
EXTD=
EXTT0=
EXTT1=
EXTT2=
EXTT3=
EXTT4=
EXTT5=
EXTT6=
EXTT7=
EXTT8=
EXTT9=
PLAYORDER=
